{"title":"Un.Sac.De.Billes.[A.Bag.Of.Marbles].2017.1080p.BRRip.x264.AC3.HO","magnet":"magnet:?xt=urn:btih:f5f5cd74fa22b360aeb7144ebb7afa81a06ee89d&dn=Un.Sac.De.Billes.%5BA.Bag.Of.Marbles%5D.2017.1080p.BRRip.x264.AC3.HO&tr=udp%3A%2F%2Ftracker.leechers-paradise.org%3A6969&tr=udp%3A%2F%2Fzer0day.ch%3A1337&tr=udp%3A%2F%2Fopen.demonii.com%3A1337&tr=udp%3A%2F%2Ftracker.coppersurfer.tk%3A6969&tr=udp%3A%2F%2Fexodus.desync.com%3A6969","uploader":"lletaif","categoryP":"video","categoryS":"movies","size":"1950638789","seeders":"0","leechers":"0","description":"Release: Un.Sac.De.Billes.[A.Bag.Of.Marbles].2017.1080p.BRRip.x264.AC3.HORiZON-ArtSubs \r\n\r\nIMDB: http://www.imdb.com/title/tt5091612/ \r\n\r\nSubtitles: English, Spanish and French \r\n\r\nPlot: The adventure of a Jewish kid and of his brother escaping the Nazi persecution in the occupied France. \r\n\r\nComplete name : Un.Sac.De.Billes.[A.Bag.Of.Marbles].2017.1080p.BRRip.x264.AC3.HORiZON-ArtSubs \r\nFormat : Matroska \r\nFormat version : Version 2 \r\nFile size : 1.82 GiB \r\nDuration : 1h 52mn \r\nOverall bit rate : 2 309 Kbps \r\nWriting application : HandBrake 0.9.5 \r\nWriting library : libmkv 0.6.4.1 \r\n\r\nVideo \r\nID : 1 \r\nFormat : AVC \r\nFormat/Info : Advanced Video Codec \r\nFormat profile : <a class=\"__cf_email__\" href=\"/cdn-cgi/l/email-protection\" data-cfemail=\"eea6878986aea2dac0de\">[email&#xA0;protected]</a><script data-cfhash=\"f9e31\" type=\"text/javascript\">/* <![CDATA[ */!function(t,e,r,n,c,a,p){try{t=document.currentScript||function(){for(t=document.getElementsByTagName('script'),e=t.length;e--;)if(t[e].getAttribute('data-cfhash'))return t[e]}();if(t&&(c=t.previousSibling)){p=t.parentNode;if(a=c.getAttribute('data-cfemail')){for(e='',r='0x'+a.substr(0,2)|0,n=2;a.length-n;n+=2)e+='%'+('0'+('0x'+a.substr(n,2)^r).toString(16)).slice(-2);p.replaceChild(document.createTextNode(decodeURIComponent(e)),c)}p.removeChild(t)}}catch(u){}}()/* ]]> */</script> \r\nFormat settings, CABAC : Yes \r\nFormat settings, ReFrames : 4 frames \r\nCodec ID : V_MPEG4/ISO/AVC \r\nDuration : 1h 52mn \r\nBit rate : 1 623 Kbps \r\nNominal bit rate : 1 715 Kbps \r\nWidth : 1 920 pixels \r\nHeight : 800 pixels \r\nDisplay aspect ratio : 2.40:1 \r\nFrame rate mode : Constant \r\nFrame rate : 24.000 fps \r\nColor space : YUV \r\nChroma subsampling : 4:2:0 \r\nBit depth : 8 bits \r\nScan type : Progressive \r\nBits/(Pixel*Frame) : 0.044 \r\nStream size : 1.28 GiB (70%) \r\nWriting library : x264 core 112 \r\nLanguage : English \r\nDefault : Yes \r\nForced : No \r\n\r\nAudio \r\nID : 2 \r\nFormat : AC-3 \r\nFormat/Info : Audio Coding 3 \r\nMode extension : CM (complete main) \r\nFormat settings, Endianness : Big \r\nCodec ID : A_AC3 \r\nDuration : 1h 52mn \r\nBit rate mode : Constant \r\nBit rate : 640 Kbps \r\nChannel count : 6 channels \r\nChannel positions : Front: L C R, Side: L R, LFE \r\nSampling rate : 48.0 KHz \r\nBit depth : 16 bits \r\nCompression mode : Lossy \r\nStream size : 516 MiB (28%) \r\nLanguage : French \r\nDefault : Yes \r\nForced : No \r\n\r\nText #1 \r\nID : 3 \r\nFormat : UTF-8 \r\nCodec ID : S_TEXT/UTF8 \r\nCodec ID/Info : UTF-8 Plain Text \r\nLanguage : French \r\nDefault : No \r\nForced : No \r\n\r\nText #2 \r\nID : 4 \r\nFormat : UTF-8 \r\nCodec ID : S_TEXT/UTF8 \r\nCodec ID/Info : UTF-8 Plain Text \r\nLanguage : English \r\nDefault : No \r\nForced : No \r\n\r\nText #3 \r\nID : 5 \r\nFormat : UTF-8 \r\nCodec ID : S_TEXT/UTF8 \r\nCodec ID/Info : UTF-8 Plain Text \r\nLanguage : Spanish \r\nDefault : No \r\nForced : No","last_updated":"2017-08-08T12:00:17.675Z","parsed":{"xt":"urn:btih:f5f5cd74fa22b360aeb7144ebb7afa81a06ee89d","dn":"Un.Sac.De.Billes.[A.Bag.Of.Marbles].2017.1080p.BRRip.x264.AC3.HO","tr":["udp://exodus.desync.com:6969","udp://open.demonii.com:1337","udp://tracker.coppersurfer.tk:6969","udp://tracker.leechers-paradise.org:6969","udp://zer0day.ch:1337"],"infoHash":"f5f5cd74fa22b360aeb7144ebb7afa81a06ee89d","infoHashBuffer":{"type":"Buffer","data":[245,245,205,116,250,34,179,96,174,183,20,78,187,122,250,129,160,110,232,157]},"name":"Un.Sac.De.Billes.[A.Bag.Of.Marbles].2017.1080p.BRRip.x264.AC3.HO","announce":["udp://exodus.desync.com:6969","udp://open.demonii.com:1337","udp://tracker.coppersurfer.tk:6969","udp://tracker.leechers-paradise.org:6969","udp://zer0day.ch:1337"],"urlList":[]}}